<!DOCTYPE svg PUBLIC "-//W3C//DTD SVG 1.1//EN" "http://www.w3.org/Graphics/SVG/1.1/DTD/svg11.dtd">
<!-- Uploaded to: SVG Repo, www.svgrepo.com, Transformed by: SVG Repo Mixer Tools -->
<svg fill="#ffffff" version="1.1" id="Capa_1" xmlns="http://www.w3.org/2000/svg" xmlns:xlink="http://www.w3.org/1999/xlink" width="800px" height="800px" viewBox="0 0 944 944" xml:space="preserve" stroke="#ffffff">
<g id="SVGRepo_bgCarrier" stroke-width="0"/>
<g id="SVGRepo_tracerCarrier" stroke-linecap="round" stroke-linejoin="round"/>
<g id="SVGRepo_iconCarrier"> <g> <g> <path d="M906.2,472.701c0,0-419.101-168.599-536.8-213.999c-15.2-5.8-32.101,2.9-35.9,18.8c-1,4.1-2,8.2-3.2,12.3 c-6.2,21.5-20.5,39.1-36.8,54c-50.1,45.6-128.9,48.6-182.1,6.4c-8-6.4-16.2-13.8-22.2-22.1c-11.6-16-25.6-23.9-46-19.4 c-16.8,3.7-29.4,16.8-29.4,34.5c0,0.2-0.4,91.8-0.5,113.4c0,2.7-0.8,5.4-2.4,7.7c-6.9,9.5-10.9,21.299-10.9,34v59 c0,32.6,26.4,59,59,59h826c32.6,0,59-26.4,59-59v-29.5C944,503.002,928.7,481.802,906.2,472.701z"/> <path d="M167.2,641.901H91.9c-4.3,0-7.5,3.9-6.8,8.101c3.8,21.1,22.3,37,44.4,37c22.2,0,40.6-16,44.4-37 C174.7,645.802,171.5,641.901,167.2,641.901z"/> <path d="M265,687.102c22.2,0,40.6-16,44.4-37c0.8-4.2-2.5-8.1-6.801-8.1h-75.3c-4.3,0-7.5,3.899-6.8,8.1 C224.4,671.102,242.8,687.102,265,687.102z"/> <path d="M709.1,641.901h-75.3c-4.3,0-7.5,3.9-6.8,8.101c3.8,21.1,22.3,37,44.4,37c22.199,0,40.6-16,44.399-37 C716.7,645.802,713.4,641.901,709.1,641.901z"/> <path d="M807,687.102c22.2,0,40.6-16,44.4-37c0.8-4.2-2.5-8.1-6.801-8.1h-75.3c-4.3,0-7.5,3.899-6.8,8.1 C766.4,671.102,784.8,687.102,807,687.102z"/> </g> </g> </g>
</svg>